<svg xmlns="http://www.w3.org/2000/svg" viewBox="0 0 2834.65 5244.05"><title>Fuss-e-v-Silh-weiblich</title><g id="Ebene_2" data-name="Ebene 2"><path d="M2483.81,2905.61c-78.31-519.85-180.7-1021.5-316.65-1498.92-30.75-164.83-194.08-304.65-466-350.82V973.24c117.89-71.37,196.69-200.83,196.69-348.71V486.67c0-225-182.37-407.34-407.33-407.34H1455c-225,0-407.33,182.37-407.33,407.34V624.53c0,147.88,78.8,277.34,196.69,348.71v83.59C990,1100,847.21,1220.09,804.12,1365.67a172.5,172.5,0,0,0-6.19,21.84c-133.19,449.26-235.62,970.62-323.7,1529.37-18.42,86.68,32.79,171.06,114.69,188.47l25,5c81.9,17.41,163.23-38.75,181.66-125.44l234.86-1090.45c7.15,9.67,22.2,25.67,30.15,34.67-3.87,20.53-65.3,556.66-65.3,556.66-144.17,537.26-264.1,898.65-264.1,1159.32,0,102,147.71,152,270.61,176.35,1.63,16.3,5.12,68.44,6.65,78-19.24,303.39,57.13,693.25,86.8,1006.9l-257,129.31c-43,14-80.51,57.17-79.32,108.12l-.26.09v37.84H981.36c142.53,0,235.79-68.5,235.79-68.5l37.1,68.5h136.1s25.79-935.5,12.83-1264.79c1.9-8.8,7.09-57.7
 4,9-73.13h102.09c1.84,15.31,5.66,48.28,5.74,49.58-13.54,332.24,12.44,1288.34,12.44,1288.34h136.11l37.1-68.5s90.17,68.5,232.7,68.5H2162.4v-32h-.26c1.19-51-36.33-94.18-79.32-108.21L1841,4912.41c27.25-307.06,88.07-699.25,74.52-1002.31,3.06-12.86,7.06-70.3,8.73-85.34,133-23,285.17-72.85,285.17-179.62,0-201-252.36-1143.15-257.83-1164,0,0-44.7-532.18-45.58-542.13a414.14,414.14,0,0,0,29.89-30l226.34,1064.91c18.58,87.42,100,144.18,181.94,126.77l25-5.28C2451.06,3078,2502.4,2993,2483.81,2905.61Z" fill="#1e1e1c"/></g></svg>