<svg xmlns="http://www.w3.org/2000/svg" viewBox="0 0 2834.65 5261.03"><title>Fuss-e-v-Silh-männlich</title><g id="Ebene_2" data-name="Ebene 2"><path d="M2447.76,2895.82C2370.08,2379,2267.32,1880.54,2132,1406c-30.78-162.8-191-301.08-457.48-348.62V973.24c117.9-71.37,196.69-200.83,196.69-348.71V486.67c0-225-182.37-407.34-407.33-407.34h-35.53c-225,0-407.34,182.37-407.34,407.34V624.53c0,147.88,78.8,277.34,196.69,348.71v82.19c-258.84,41.78-404.26,162.42-448.24,309.07A170.07,170.07,0,0,0,763,1387C630.13,1834.8,526.8,2354,439.1,2911c-18.36,86.41,33.15,170.56,115,188l26,5.53c81.9,17.41,163.18-38.52,181.55-124.93l205.2-965.43v575.21a415.53,415.53,0,0,0,5.63,68.3c-37.19,462-56.47,888-25,1212.37-.54,16.2,20.65,767.84,45.83,1093.11l-259.18,53.73c-50.87,5.36-89,51.21-89.54,105h0v59.85h361.66l189.33-24.25v24.25h172.33s23.74-888.9,7.62-1233.62c0-5.44,54.62-470.26,72.11-694,17.49,223.71,74.58,690.52,74.61,694-16.13,344.72,7.59,1233.62,7.59,1233.62h172.33v-24.25l189.33,24.25h361.66v-59.85h0c-.55-53.82-38.67-99.67-89.53-105l-259.18-53.73c25.18-325.27,43.81-1078.8,43.33-1093.11,31.78-327.73,11.75-759.37-26.2-1227a415.69,415.69,0,0,0,3.47-53.71V2022.94l200.1,941.45c18.48,86.93,99.85,143.28,181.75,125.87l26-5.53C2414.82,3067.33,2466.23,2982.75,2447.76,2895.82Z" fill="#1e1e1c"/></g></svg>